# xmcd
#
# Track frame offsets:
#	150
#	15574
#	30994
#	46139
#	62222
#	77596
#	92254
#	109772
#	126925
#	140164
#	153366
#	170590
#	185095
#	199246
#	213214
#	213940
#	214672
#	215397
#	216423
#	217210
#	217933
#	218643
#	219373
#	220169
#	220828
#	221446
#	222237
#	223257
#	223976
#	224628
#	225339
#	226119
#	226805
#	227526
#	228217
#	229190
#	229986
#	230729
#	231415
#	232180
#	232876
#	233718
#	234748
#	235629
#	236433
#	237179
#
# Disc length: 3170 seconds
#
# Revision: 1
# Processed by: cddbd v1.5.2PL0 Copyright (c) Steve Scherf et al.
# Submitted via: audiograbber 1.83.01
#
DISCID=af0c602e
DTITLE=Various Artist - CDX Volume 613 (March 9, 2015)
DYEAR=2015
DGENRE=Country
TTITLE0=Jana Kramer - I Got The Boy 
TTITLE1=Trisha Yearwood - I Remember You [Radio Edit]
TTITLE2=Eric Church - Like A Wrecking Ball 
TTITLE3=Carrie Underwood - Little Toy Guns 
TTITLE4=Cam - My Mistake
TTITLE5=Ruthie Collins - Ramblin' Man 
TTITLE6=Brothers Osborne - Stay A Little Longer [Radio Edit]
TTITLE7=Striking Matches - Hanging On A Lie
TTITLE8=Vince Hatfield - How Long Will I Love You
TTITLE9=SaraBeth - I'm Sick Of It
TTITLE10=Barry Michael - On My Island
TTITLE11=John King - On Your Lips 
TTITLE12=Chris Cox - Sunday Mornin' Guitar 
TTITLE13=Sherry Lynn - What Are You Running From
TTITLE14=Batson Haines - Radio Liner - Home Town Country
TTITLE15=Batson Haines - Radio Liner - Kickin' Country
TTITLE16=Batson Haines - Radio Liner - More Of The Country You Love
TTITLE17=Batson Haines - Radio Liner - Our New Single
TTITLE18=Batson Haines - Radio Liner - Super Country
TTITLE19=Batson Haines - Radio Liner - The Best In Country Music
TTITLE20=Batson Haines - Radio Liner - Today's Best Country
TTITLE21=Batson Haines - Radio Liner - Today's Hot Country Music
TTITLE22=Brian Collins - Radio Liner - Greatest Hits Of All Time
TTITLE23=Brian Collins - Radio Liner - Home Town Country
TTITLE24=Brian Collins - Radio Liner - Kickin' Country
TTITLE25=Brian Collins - Radio Liner - More Of The Country You Love
TTITLE26=Brian Collins - Radio Liner - My New Single
TTITLE27=Brian Collins - Radio Liner - Best In Country Music
TTITLE28=Brian Collins - Radio Liner - Today's Best Country
TTITLE29=Brian Collins - Radio Liner - Today's Hot Country Music
TTITLE30=Jo Dee Messina - Radio Liner - Greatest Hits of All Time
TTITLE31=Jo Dee Messina - Radio Liner - Home Town Country
TTITLE32=Jo Dee Messina - Radio Liner - Kickin' Country
TTITLE33=Jo Dee Messina - Radio Liner - More Of The Country You Love
TTITLE34=Jo Dee Messina - Radio Liner - My New Single
TTITLE35=Jo Dee Messina - Radio Liner - The Best in Country Music
TTITLE36=Jo Dee Messina - Radio Liner - Today's Best Country
TTITLE37=Jo Dee Messina - Radio Liner - Today's Hot Country Music
TTITLE38=Nashville Crush - Radio Liner - Home Town Country
TTITLE39=Nashville Crush - Radio Liner - Kickin Country
TTITLE40=Nashville Crush - Radio Liner - More Of The Country You Love
TTITLE41=Nashville Crush - Radio Liner - Our New Single
TTITLE42=Nashville Crush - Radio Liner - Super Country
TTITLE43=Nashville Crush - Radio Liner - The Best In Country Music
TTITLE44=Nashville Crush - Radio Liner - Today's Best Country
TTITLE45=Nashville Crush - Radio Liner - Today's Hot Country Music
EXTD=
EXTT0=
EXTT1=
EXTT2=
EXTT3=
EXTT4=
EXTT5=
EXTT6=
EXTT7=
EXTT8=
EXTT9=
EXTT10=
EXTT11=
EXTT12=
EXTT13=
EXTT14=
EXTT15=
EXTT16=
EXTT17=
EXTT18=
EXTT19=
EXTT20=
EXTT21=
EXTT22=
EXTT23=
EXTT24=
EXTT25=
EXTT26=
EXTT27=
EXTT28=
EXTT29=
EXTT30=
EXTT31=
EXTT32=
EXTT33=
EXTT34=
EXTT35=
EXTT36=
EXTT37=
EXTT38=
EXTT39=
EXTT40=
EXTT41=
EXTT42=
EXTT43=
EXTT44=
EXTT45=
PLAYORDER=
